<svg xmlns="http://www.w3.org/2000/svg" width="182.604" height="106.343" viewBox="0 0 182.604 106.343">
  <g id="그룹_3827" data-name="그룹 3827" transform="translate(-313.225 -833.831)">
    <g id="그룹_3827-2" data-name="그룹 3827" transform="translate(313.225 894.566)">
      <path id="패스_567" data-name="패스 567" d="M334.318,915.342h-5.182a1.1,1.1,0,0,0-1.1,1.1h0a1.1,1.1,0,0,0,1.1,1.1h5.182v15.718a1.375,1.375,0,0,0,1.375,1.376h0a1.375,1.375,0,0,0,1.376-1.376V909.679a1.375,1.375,0,0,0-1.376-1.376h0a1.375,1.375,0,0,0-1.375,1.376Z" transform="translate(-315.864 -907.835)" fill="#fff"/>
      <path id="패스_568" data-name="패스 568" d="M355.372,924.525h0A1.375,1.375,0,0,0,354,925.9v4.872h-9.943a1.1,1.1,0,0,0-1.1,1.1h0a1.1,1.1,0,0,0,1.1,1.1H366.6a1.1,1.1,0,0,0,1.1-1.1h0a1.1,1.1,0,0,0-1.1-1.1h-9.85V925.9A1.375,1.375,0,0,0,355.372,924.525Z" transform="translate(-318.522 -910.725)" fill="#fff"/>
      <path id="패스_569" data-name="패스 569" d="M392.766,926.714h0a1.375,1.375,0,0,0-1.375,1.375v1.473h-5.93a1.1,1.1,0,0,0-1.1,1.1h0a1.1,1.1,0,0,0,1.1,1.1H387.6a4.546,4.546,0,0,0-.94,2.807c0,2.912,2.7,5.192,6.15,5.192s6.15-2.281,6.15-5.192a4.442,4.442,0,0,0-.961-2.807h2.069a1.1,1.1,0,0,0,1.1-1.1h0a1.1,1.1,0,0,0-1.1-1.1h-5.93v-1.473A1.375,1.375,0,0,0,392.766,926.714Zm3.447,7.825c0,1.836-1.335,3.023-3.4,3.023-2.047,0-3.369-1.187-3.369-3.023,0-1.66,1.354-2.775,3.369-2.775C394.782,931.763,396.212,932.93,396.212,934.539Z" transform="translate(-325.899 -911.115)" fill="#fff"/>
      <path id="패스_570" data-name="패스 570" d="M391.983,918.6h0a1.375,1.375,0,0,0-1.375,1.375v2.533h-9.974a1.1,1.1,0,0,0-1.1,1.1h0a1.1,1.1,0,0,0,1.1,1.1h22.542a1.1,1.1,0,0,0,1.1-1.1h0a1.1,1.1,0,0,0-1.1-1.1h-9.818v-2.533A1.375,1.375,0,0,0,391.983,918.6Z" transform="translate(-325.039 -909.669)" fill="#fff"/>
      <path id="패스_571" data-name="패스 571" d="M425.29,919.926c3.619,0,7.465-2.143,7.465-6.112,0-3.807-3.8-6.082-7.465-6.082-4.849,0-7.465,3.133-7.465,6.082C417.825,917.784,421.67,919.926,425.29,919.926Zm-4.827-6.141c0-2.684,2.5-3.906,4.827-3.906,2.4,0,4.827,1.341,4.827,3.906,0,2.6-2.429,3.966-4.827,3.966C422.965,917.751,420.463,916.509,420.463,913.785Z" transform="translate(-331.862 -907.733)" fill="#fff"/>
      <path id="패스_572" data-name="패스 572" d="M418.916,935.924v-4.119a1.406,1.406,0,0,0-1.406-1.406h0a1.406,1.406,0,0,0-1.406,1.406v4.784c0,1.814.961,2.855,2.635,2.855h14.722a1.1,1.1,0,0,0,1.1-1.1h0a1.1,1.1,0,0,0-1.1-1.1H420.077C419.275,937.253,418.916,937.061,418.916,935.924Z" transform="translate(-331.555 -911.771)" fill="#fff"/>
      <path id="패스_573" data-name="패스 573" d="M412.642,927.85H434.6a1.1,1.1,0,0,0,1.1-1.1h0a1.1,1.1,0,0,0-1.1-1.1H412.642a1.1,1.1,0,0,0-1.1,1.1h0A1.1,1.1,0,0,0,412.642,927.85Z" transform="translate(-330.742 -910.925)" fill="#fff"/>
      <path id="패스_574" data-name="패스 574" d="M465.351,913.6v-3.354a1.558,1.558,0,0,0-1.639-1.778H448.906a1.1,1.1,0,0,0-1.1,1.1h0a1.1,1.1,0,0,0,1.1,1.1H462.6v2.815H448.89a1.116,1.116,0,0,0-1.116,1.116h0a1.116,1.116,0,0,0,1.116,1.116h13.592a14.2,14.2,0,0,1-.993,3.767H444.971a1.116,1.116,0,0,0-1.116,1.116h0a1.116,1.116,0,0,0,1.116,1.116h22.841a1.116,1.116,0,0,0,1.116-1.116h0a1.116,1.116,0,0,0-1.116-1.116h-3.731A13.571,13.571,0,0,0,465.351,913.6Z" transform="translate(-336.499 -907.863)" fill="#fff"/>
      <path id="패스_575" data-name="패스 575" d="M451.768,936.153v-1.73h11.289a2.625,2.625,0,0,0,2.7-2.731v-2.775a1.435,1.435,0,0,0-1.434-1.435H450.012a1.1,1.1,0,0,0-1.1,1.1h0a1.1,1.1,0,0,0,1.1,1.1H463v1.546c0,.623-.18.961-1.129.961H450.452a1.434,1.434,0,0,0-1.434,1.434v2.867a2.51,2.51,0,0,0,2.791,2.824H465.23a1.116,1.116,0,0,0,1.116-1.116h0a1.116,1.116,0,0,0-1.116-1.116H452.772C451.955,937.084,451.768,936.909,451.768,936.153Z" transform="translate(-337.4 -911.252)" fill="#fff"/>
      <path id="패스_576" data-name="패스 576" d="M502.574,935.9h0a1.375,1.375,0,0,0,1.375-1.375V909.678a1.375,1.375,0,0,0-1.375-1.375h0a1.375,1.375,0,0,0-1.375,1.375v24.846A1.375,1.375,0,0,0,502.574,935.9Z" transform="translate(-346.716 -907.835)" fill="#fff"/>
      <path id="패스_577" data-name="패스 577" d="M480.943,923.672v-4.716h7.289a2.7,2.7,0,0,0,2.7-2.7V910.5a1.434,1.434,0,0,0-1.434-1.434H479.309a1.116,1.116,0,0,0-1.116,1.116h0a1.116,1.116,0,0,0,1.116,1.116h8.87v4.468c0,.638-.174.961-1.129.961h-7.206a1.651,1.651,0,0,0-1.651,1.652v5.634a2.51,2.51,0,0,0,2.791,2.824h11.968a1.116,1.116,0,0,0,1.116-1.116h0a1.116,1.116,0,0,0-1.116-1.116h-11C481.131,924.6,480.943,924.428,480.943,923.672Z" transform="translate(-342.617 -907.97)" fill="#fff"/>
      <path id="패스_578" data-name="패스 578" d="M532.071,909.678v12.475a1.376,1.376,0,0,0,1.375,1.376h0a1.376,1.376,0,0,0,1.375-1.376V909.678a1.375,1.375,0,0,0-1.375-1.375h0A1.375,1.375,0,0,0,532.071,909.678Z" transform="translate(-352.216 -907.835)" fill="#fff"/>
      <path id="패스_579" data-name="패스 579" d="M515.855,931.519h13.13v7.025a1.375,1.375,0,0,0,1.375,1.375h0a1.375,1.375,0,0,0,1.375-1.375v-7.792a1.434,1.434,0,0,0-1.434-1.434H515.855a1.1,1.1,0,0,0-1.1,1.1h0A1.1,1.1,0,0,0,515.855,931.519Z" transform="translate(-349.131 -911.579)" fill="#fff"/>
      <path id="패스_580" data-name="패스 580" d="M525.009,921.194a1.116,1.116,0,0,0-1.116-1.116H513.97c-1.019,0-1.252-.254-1.252-1.36v-8.264a1.391,1.391,0,0,0-1.391-1.39h0a1.391,1.391,0,0,0-1.391,1.39v9.124a2.732,2.732,0,0,0,2.733,2.733h11.224a1.116,1.116,0,0,0,1.116-1.116Z" transform="translate(-348.273 -907.97)" fill="#fff"/>
      <path id="패스_581" data-name="패스 581" d="M321.137,917.322v-6.81a1.426,1.426,0,0,0-1.144-1.429,1.376,1.376,0,0,0-1.606,1.356v6.884a9.13,9.13,0,0,1-4.572,7.548,1.234,1.234,0,0,0-.444,1.629l0,0a1.22,1.22,0,0,0,1.706.466,15.1,15.1,0,0,0,4.693-4.481,14.1,14.1,0,0,0,4.643,4.53,1.262,1.262,0,0,0,1.747-.5h0a1.27,1.27,0,0,0-.446-1.677A9.241,9.241,0,0,1,321.137,917.322Z" transform="translate(-313.225 -907.97)" fill="#fff"/>
      <path id="패스_582" data-name="패스 582" d="M357.532,913.252h6.1a1.129,1.129,0,0,0,1.109-.818,1.1,1.1,0,0,0-1.065-1.384h-6.24v-1.3a1.426,1.426,0,0,0-1.145-1.43,1.375,1.375,0,0,0-1.605,1.356v1.373h-6.353a1.129,1.129,0,0,0-1.11.818,1.1,1.1,0,0,0,1.066,1.384h6.3c-.58,3.375-3.938,5.812-6.9,7.062a1.135,1.135,0,0,0-.624,1.462h0a1.134,1.134,0,0,0,1.506.63c2.122-.913,5.673-2.857,7.481-5.549a17.074,17.074,0,0,0,7.544,5.617,1.13,1.13,0,0,0,1.429-.662l.011-.027a1.135,1.135,0,0,0-.618-1.459C361.419,919.041,358.107,916.5,357.532,913.252Z" transform="translate(-319.241 -907.835)" fill="#fff"/>
      <path id="패스_583" data-name="패스 583" d="M394.325,911.04h5.76a1.13,1.13,0,0,0,1.11-.818,1.1,1.1,0,0,0-1.066-1.384H384.787a1.129,1.129,0,0,0-1.109.817,1.1,1.1,0,0,0,1.065,1.385h6c-1.07,2.044-4.312,3.887-6.885,4.912a1.141,1.141,0,0,0-.644,1.484h0a1.14,1.14,0,0,0,1.462.646c2.2-.826,6.058-2.545,7.839-5.189a15.9,15.9,0,0,0,7.868,5.242,1.154,1.154,0,0,0,1.424-.675h0a1.157,1.157,0,0,0-.648-1.5C398.569,914.91,395.385,913.02,394.325,911.04Z" transform="translate(-325.679 -907.93)" fill="#fff"/>
    </g>
    <g id="그룹_3828" data-name="그룹 3828" transform="translate(348.303 932.586)">
      <path id="패스_584" data-name="패스 584" d="M361.26,954.555a.451.451,0,0,1,.1.662.416.416,0,0,1-.6.145,2.971,2.971,0,0,0-1.657-.424c-1.5,0-2.153.766-2.153,2.692v.321c0,1.935.631,2.692,2.205,2.692a3.214,3.214,0,0,0,1.491-.3v-2.029h-1.4c-.259,0-.373-.207-.373-.445s.114-.435.373-.435h1.625c.6,0,.8.187.8.777v2.122a.8.8,0,0,1-.517.859,5.1,5.1,0,0,1-2.04.393c-2.112,0-3.21-1.066-3.21-3.551v-.487c0-2.484,1.1-3.551,3.21-3.551A3.775,3.775,0,0,1,361.26,954.555Z" transform="translate(-355.907 -953.995)" fill="#fff"/>
      <path id="패스_585" data-name="패스 585" d="M371.994,957.546v.487c0,2.413-1.087,3.551-3.075,3.551s-3.074-1.138-3.074-3.551v-.487c0-2.412,1.086-3.551,3.074-3.551S371.994,955.134,371.994,957.546Zm-5.1.083v.321c0,1.915.662,2.681,2.029,2.681s2.029-.766,2.029-2.681v-.321c0-1.915-.662-2.692-2.029-2.692S366.889,955.714,366.889,957.629Z" transform="translate(-357.678 -953.995)" fill="#fff"/>
      <path id="패스_586" data-name="패스 586" d="M382.371,957.546v.487c0,2.413-1.087,3.551-3.075,3.551s-3.074-1.138-3.074-3.551v-.487c0-2.412,1.087-3.551,3.074-3.551S382.371,955.134,382.371,957.546Zm-5.1.083v.321c0,1.915.662,2.681,2.029,2.681s2.029-.766,2.029-2.681v-.321c0-1.915-.662-2.692-2.029-2.692S377.266,955.714,377.266,957.629Z" transform="translate(-359.526 -953.995)" fill="#fff"/>
      <path id="패스_587" data-name="패스 587" d="M392.567,957.519v.59c0,2.33-1.128,3.386-3.178,3.386H387.7c-.6,0-.8-.186-.8-.766V954.9c0-.58.2-.766.8-.766h1.688C391.491,954.134,392.567,955.19,392.567,957.519Zm-3.313,3.085c1.552,0,2.267-.755,2.267-2.567v-.424c0-1.833-.652-2.589-2.267-2.589H387.94v5.58Z" transform="translate(-361.43 -954.02)" fill="#fff"/>
      <path id="패스_588" data-name="패스 588" d="M400.94,954.506v6.6c0,.3-.248.435-.528.435s-.518-.135-.518-.435v-6.6c0-.3.248-.434.518-.434S400.94,954.206,400.94,954.506Z" transform="translate(-363.744 -954.009)" fill="#fff"/>
      <path id="패스_589" data-name="패스 589" d="M406.407,954.9l1.843,4.162,1.791-4.151c.259-.663.456-.8.911-.8h.155c.507,0,.683.186.683.735v6.285c0,.29-.228.414-.487.414s-.5-.124-.5-.414v-6.005a9.537,9.537,0,0,1-.4,1.15l-1.594,3.6c-.135.331-.29.424-.559.424a.564.564,0,0,1-.611-.446l-1.574-3.581a10.283,10.283,0,0,1-.425-1.15v6.005c0,.29-.237.414-.5.414s-.487-.124-.487-.414v-6.285c0-.549.187-.735.695-.735h.155C405.951,954.109,406.127,954.213,406.407,954.9Z" transform="translate(-364.593 -954.015)" fill="#fff"/>
      <path id="패스_590" data-name="패스 590" d="M420.02,954.537l2.454,6.326a.455.455,0,0,1-.29.631.5.5,0,0,1-.694-.289l-.683-1.853H417.94l-.7,1.884a.457.457,0,0,1-.652.258.422.422,0,0,1-.28-.6l2.464-6.357a.654.654,0,0,1,1.252,0Zm-1.1,2.153-.673,1.792H420.5l-.663-1.792c-.186-.518-.331-.932-.455-1.346C419.244,955.8,419.12,956.163,418.923,956.69Z" transform="translate(-366.66 -954.009)" fill="#fff"/>
      <path id="패스_591" data-name="패스 591" d="M431.592,954.555a.451.451,0,0,1,.1.662.417.417,0,0,1-.6.145,2.971,2.971,0,0,0-1.657-.424c-1.5,0-2.153.766-2.153,2.692v.321c0,1.935.632,2.692,2.205,2.692a3.209,3.209,0,0,0,1.491-.3v-2.029h-1.4c-.259,0-.373-.207-.373-.445s.114-.435.373-.435h1.626c.6,0,.8.187.8.777v2.122a.8.8,0,0,1-.518.859,5.1,5.1,0,0,1-2.04.393c-2.112,0-3.209-1.066-3.209-3.551v-.487c0-2.484,1.1-3.551,3.209-3.551A3.778,3.778,0,0,1,431.592,954.555Z" transform="translate(-368.438 -953.995)" fill="#fff"/>
      <path id="패스_592" data-name="패스 592" d="M441.209,954.569c0,.238-.113.435-.362.435h-3.314v2.288h3.107c.238,0,.352.2.352.425s-.114.435-.352.435h-3.107v2.474h3.386c.248,0,.362.2.362.435s-.114.435-.362.435H437.3c-.6,0-.8-.186-.8-.766V954.9c0-.58.2-.766.8-.766h3.551C441.1,954.134,441.209,954.33,441.209,954.569Z" transform="translate(-370.266 -954.02)" fill="#fff"/>
      <path id="패스_593" data-name="패스 593" d="M453.278,954.555a.477.477,0,0,1-.507.807,2.9,2.9,0,0,0-1.636-.414c-1.314,0-2,.839-2,2.682v.321c0,1.811.642,2.671,2.009,2.671a2.851,2.851,0,0,0,1.8-.549.46.46,0,0,1,.653.114.5.5,0,0,1-.114.725,3.921,3.921,0,0,1-2.36.672c-1.957,0-3.033-1.138-3.033-3.551v-.487c0-2.412,1.086-3.551,3.065-3.551A3.7,3.7,0,0,1,453.278,954.555Z" transform="translate(-372.331 -953.995)" fill="#fff"/>
      <path id="패스_594" data-name="패스 594" d="M458.977,954.506v6.087h3.24c.248,0,.362.207.362.446s-.114.445-.362.445h-3.49c-.6,0-.8-.187-.8-.766v-6.213c0-.3.249-.434.518-.434S458.977,954.206,458.977,954.506Z" transform="translate(-374.084 -954.009)" fill="#fff"/>
      <path id="패스_595" data-name="패스 595" d="M467.446,954.506v6.6c0,.3-.248.435-.528.435s-.518-.135-.518-.435v-6.6c0-.3.248-.434.518-.434S467.446,954.206,467.446,954.506Z" transform="translate(-375.593 -954.009)" fill="#fff"/>
      <path id="패스_596" data-name="패스 596" d="M476.733,954.485v6.263c0,.57-.2.756-.725.756-.383,0-.549-.093-.942-.786l-2.506-4.339a4.368,4.368,0,0,1-.424-.994v5.736c0,.29-.238.414-.486.414s-.487-.124-.487-.414v-6.264c0-.57.2-.755.725-.755.394,0,.549.1.943.786l2.505,4.339a4.348,4.348,0,0,1,.435.994v-5.735c0-.29.228-.414.477-.414S476.733,954.2,476.733,954.485Z" transform="translate(-376.442 -954.009)" fill="#fff"/>
      <path id="패스_597" data-name="패스 597" d="M482.5,954.506v6.6c0,.3-.249.435-.528.435s-.518-.135-.518-.435v-6.6c0-.3.249-.434.518-.434S482.5,954.206,482.5,954.506Z" transform="translate(-378.275 -954.009)" fill="#fff"/>
      <path id="패스_598" data-name="패스 598" d="M491.091,954.555a.478.478,0,0,1-.508.807,2.9,2.9,0,0,0-1.636-.414c-1.315,0-2,.839-2,2.682v.321c0,1.811.642,2.671,2.008,2.671a2.851,2.851,0,0,0,1.8-.549.459.459,0,0,1,.652.114.5.5,0,0,1-.113.725,3.924,3.924,0,0,1-2.361.672c-1.957,0-3.033-1.138-3.033-3.551v-.487c0-2.412,1.087-3.551,3.065-3.551A3.7,3.7,0,0,1,491.091,954.555Z" transform="translate(-379.068 -953.995)" fill="#fff"/>
    </g>
    <path id="패스_599" data-name="패스 599" d="M445.193,846.031H428.113c-.066,0-.128.013-.193.02-.128,0-.254-.02-.383-.02a1.957,1.957,0,1,0,0,3.914,12.477,12.477,0,1,1-12.423,13.486,16.376,16.376,0,1,0-25.792-16.05,16.388,16.388,0,1,0,9.889,15.041,1.956,1.956,0,0,0-1.957-1.957H384.781a1.956,1.956,0,0,0,0,3.913h10.365a12.476,12.476,0,1,1-1.982-8.94,1.956,1.956,0,0,0,3.24-2.192,16.418,16.418,0,0,0-3.4-3.669A12.47,12.47,0,1,1,405.451,862.7a1.957,1.957,0,1,0,0,3.913,16.288,16.288,0,0,0,5.992-1.15,16.383,16.383,0,1,0,26.7-15.519h7.053a12.477,12.477,0,1,1,0,24.955h-1.812a1.957,1.957,0,0,0,0,3.914h1.812a16.391,16.391,0,1,0,0-32.782Z" transform="translate(-9.479 0)" fill="#fff"/>
  </g>
</svg>
